<svg width="20" height="21" viewBox="0 0 20 21" fill="none" xmlns="http://www.w3.org/2000/svg">
<path d="M16.25 4.5H13.925C13.7509 3.65356 13.2904 2.89301 12.6209 2.34654C11.9515 1.80007 11.1142 1.50109 10.25 1.5L8.75 1.5C7.88585 1.50109 7.04849 1.80007 6.37906 2.34654C5.70963 2.89301 5.24907 3.65356 5.075 4.5H2.75C2.55109 4.5 2.36032 4.57902 2.21967 4.71967C2.07902 4.86032 2 5.05109 2 5.25C2 5.44891 2.07902 5.63968 2.21967 5.78033C2.36032 5.92098 2.55109 6 2.75 6H3.5V15.75C3.50119 16.7442 3.89666 17.6973 4.59966 18.4003C5.30267 19.1033 6.2558 19.4988 7.25 19.5H11.75C12.7442 19.4988 13.6973 19.1033 14.4003 18.4003C15.1033 17.6973 15.4988 16.7442 15.5 15.75V6H16.25C16.4489 6 16.6397 5.92098 16.7803 5.78033C16.921 5.63968 17 5.44891 17 5.25C17 5.05109 16.921 4.86032 16.7803 4.71967C16.6397 4.57902 16.4489 4.5 16.25 4.5ZM8.75 3H10.25C10.7152 3.00057 11.1688 3.14503 11.5487 3.41358C11.9286 3.68213 12.2161 4.06162 12.3717 4.5H6.62825C6.78394 4.06162 7.07142 3.68213 7.45129 3.41358C7.83115 3.14503 8.28479 3.00057 8.75 3ZM14 15.75C14 16.3467 13.7629 16.919 13.341 17.341C12.919 17.7629 12.3467 18 11.75 18H7.25C6.65326 18 6.08097 17.7629 5.65901 17.341C5.23705 16.919 5 16.3467 5 15.75V6H14V15.75Z" fill="#41536D"/>
<path d="M8 15C8.19891 15 8.38968 14.921 8.53033 14.7803C8.67098 14.6397 8.75 14.4489 8.75 14.25V9.75C8.75 9.55109 8.67098 9.36032 8.53033 9.21967C8.38968 9.07902 8.19891 9 8 9C7.80109 9 7.61032 9.07902 7.46967 9.21967C7.32902 9.36032 7.25 9.55109 7.25 9.75V14.25C7.25 14.4489 7.32902 14.6397 7.46967 14.7803C7.61032 14.921 7.80109 15 8 15ZM11 15C11.1989 15 11.3897 14.921 11.5303 14.7803C11.671 14.6397 11.75 14.4489 11.75 14.25V9.75C11.75 9.55109 11.671 9.36032 11.5303 9.21967C11.3897 9.07902 11.1989 9 11 9C10.8011 9 10.6103 9.07902 10.4697 9.21967C10.329 9.36032 10.25 9.55109 10.25 9.75V14.25C10.25 14.4489 10.329 14.6397 10.4697 14.7803C10.6103 14.921 10.8011 15 11 15Z" fill="#41536D"/>
</svg>
