<svg width="20" height="21" viewBox="0 0 20 21" fill="none" xmlns="http://www.w3.org/2000/svg">
<path d="M7.06081 5.62897L9.25526 3.43374L9.25002 15.0121C9.25002 15.4263 9.5858 15.762 10 15.762C10.4142 15.762 10.75 15.4263 10.75 15.0121L10.7552 3.4465L12.9392 5.63122C13.2371 5.91896 13.7119 5.91074 13.9997 5.61279C14.2804 5.32216 14.2804 4.86138 13.9997 4.57074L11.5915 2.15952C10.7131 1.28056 9.28848 1.2801 8.40952 2.1585L8.4085 2.15952L6.0003 4.56849C5.71255 4.86644 5.72078 5.34122 6.01872 5.62897C6.30936 5.90968 6.77014 5.90968 7.06081 5.62897Z" fill="#41536D"/>
<path d="M18.2499 13.5C17.8357 13.5 17.4999 13.8358 17.4999 14.25V17.2499C17.4999 17.6641 17.1641 17.9999 16.7499 17.9999H3.25014C2.83594 17.9999 2.50017 17.6641 2.50017 17.2499V14.25C2.50017 13.8358 2.16439 13.5 1.75019 13.5C1.33599 13.5 1.00021 13.8358 1.00021 14.25V17.2499C1.00021 18.4925 2.00756 19.4999 3.25018 19.4999H16.75C17.9926 19.4999 18.9999 18.4925 18.9999 17.2499V14.25C18.9999 13.8358 18.6641 13.5 18.2499 13.5Z" fill="#41536D"/>
</svg>
