<svg xmlns="http://www.w3.org/2000/svg" width="80" height="80" viewBox="0 0 80 80" fill="none">
<g clip-path="url(#clip0_407_14713)">
<path d="M26.9369 18.351L36.6901 8.5944L36.6668 60.0536C36.6668 61.8945 38.1591 63.3868 40 63.3868C41.8409 63.3868 43.3332 61.8945 43.3332 60.0536L43.3565 8.65112L53.0631 18.361C54.3873 19.6398 56.4974 19.6033 57.7763 18.2791C59.0239 16.9874 59.0239 14.9395 57.7763 13.6478L47.0732 2.9312C43.1692 -0.975297 36.8377 -0.977328 32.9312 2.92667L32.9267 2.9312L22.2236 13.6378C20.9447 14.962 20.9812 17.0721 22.3054 18.351C23.5971 19.5986 25.6451 19.5986 26.9369 18.351Z" fill="#E6ECFF"/>
<path d="M76.6661 53.334C74.8252 53.334 73.3328 54.8263 73.3328 56.6672V70.0003C73.3328 71.8412 71.8405 73.3335 69.9996 73.3335H10.0005C8.15963 73.3335 6.66731 71.8412 6.66731 70.0003V56.6672C6.66731 54.8263 5.17499 53.334 3.33408 53.334C1.49318 53.334 0.000854492 54.8263 0.000854492 56.6672V70.0003C0.000854492 75.523 4.47797 80.0001 10.0007 80.0001H69.9998C75.5225 80.0001 79.9996 75.523 79.9996 70.0003V56.6672C79.9993 54.8263 78.507 53.334 76.6661 53.334Z" fill="#E6ECFF"/>
</g>
<defs>
<clipPath id="clip0_407_14713">
<rect width="80" height="80" fill="white"/>
</clipPath>
</defs>
</svg>