<svg width="20" height="20" viewBox="0 0 20 20" fill="none" xmlns="http://www.w3.org/2000/svg">
<g clip-path="url(#clip0_414_15043)">
<path d="M19.3925 7.84956C18.1 5.74456 15.16 2.21289 10 2.21289C4.84001 2.21289 1.90001 5.74456 0.607512 7.84956C0.207952 8.49581 -0.00369263 9.24059 -0.00369263 10.0004C-0.00369263 10.7602 0.207952 11.505 0.607512 12.1512C1.90001 14.2562 4.84001 17.7879 10 17.7879C15.16 17.7879 18.1 14.2562 19.3925 12.1512C19.7921 11.505 20.0037 10.7602 20.0037 10.0004C20.0037 9.24059 19.7921 8.49581 19.3925 7.84956ZM17.9717 11.2787C16.8617 13.0837 14.3492 16.1212 10 16.1212C5.65085 16.1212 3.13835 13.0837 2.02835 11.2787C1.79096 10.8946 1.66522 10.452 1.66522 10.0004C1.66522 9.54883 1.79096 9.10619 2.02835 8.72206C3.13835 6.91706 5.65085 3.87956 10 3.87956C14.3492 3.87956 16.8617 6.91372 17.9717 8.72206C18.2091 9.10619 18.3348 9.54883 18.3348 10.0004C18.3348 10.452 18.2091 10.8946 17.9717 11.2787Z" fill="#41536D"/>
<path d="M10 5.83398C9.17592 5.83398 8.37034 6.07836 7.68514 6.53619C6.99993 6.99403 6.46588 7.64478 6.15051 8.40614C5.83515 9.1675 5.75263 10.0053 5.91341 10.8135C6.07418 11.6218 6.47101 12.3642 7.05373 12.9469C7.63645 13.5296 8.37888 13.9265 9.18714 14.0873C9.99539 14.248 10.8332 14.1655 11.5945 13.8502C12.3559 13.5348 13.0066 13.0007 13.4645 12.3155C13.9223 11.6303 14.1667 10.8247 14.1667 10.0007C14.1654 8.89599 13.7259 7.83695 12.9448 7.05583C12.1637 6.27472 11.1047 5.83531 10 5.83398ZM10 12.5007C9.50556 12.5007 9.02221 12.354 8.61109 12.0793C8.19996 11.8046 7.87953 11.4142 7.69031 10.9574C7.50109 10.5005 7.45159 9.99788 7.54805 9.51293C7.64451 9.02797 7.88261 8.58252 8.23224 8.23288C8.58188 7.88325 9.02733 7.64515 9.51229 7.54869C9.99724 7.45222 10.4999 7.50173 10.9567 7.69095C11.4135 7.88017 11.804 8.2006 12.0787 8.61173C12.3534 9.02285 12.5 9.5062 12.5 10.0007C12.5 10.6637 12.2366 11.2996 11.7678 11.7684C11.2989 12.2373 10.6631 12.5007 10 12.5007Z" fill="#41536D"/>
</g>
<defs>
<clipPath id="clip0_414_15043">
<rect width="20" height="20" fill="white"/>
</clipPath>
</defs>
</svg>
